<svg width="40" height="40" viewBox="0 0 40 40" fill="none" xmlns="http://www.w3.org/2000/svg">
<rect width="40" height="40" rx="20" fill="#F7FDFB"/>
<path fill-rule="evenodd" clip-rule="evenodd" d="M17.7376 21.0672L20.0013 22.615L22.184 21.1096L27.0757 25.9361C26.9468 25.9776 26.8094 26 26.6667 26H13.3333C13.1572 26 12.9891 25.9659 12.8353 25.9039L17.7376 21.0672ZM28 17.1008V24.6667C28 24.8639 27.9572 25.0512 27.8803 25.2197L23.0848 20.4888L28 17.1008ZM12 17.1432L16.8336 20.4488L12.0846 25.135C12.0299 24.9893 12 24.8315 12 24.6667L12 17.1432ZM26.6667 14C27.403 14 28 14.597 28 15.3333V15.8024L19.9987 21.3181L12 15.848L12 15.3333C12 14.597 12.597 14 13.3333 14H26.6667Z" fill="#232221"/>
</svg>
