<svg width="40" height="40" viewBox="0 0 40 40" fill="none" xmlns="http://www.w3.org/2000/svg">
<rect width="40" height="40" rx="20" fill="#F7FDFB"/>
<g clip-path="url(#clip0_1386_2209)">
<path fill-rule="evenodd" clip-rule="evenodd" d="M27.7124 25.4426C27.2186 26.8979 25.2836 27.6237 23.9012 27.5027C22.0132 27.3372 19.9588 26.3661 18.3993 25.2966C16.107 23.7244 13.9598 21.2924 12.7086 18.7117C11.8243 16.8881 11.6259 14.6461 12.9411 12.9839C13.4275 12.3695 13.9534 12.0413 14.7438 12.0031C15.8403 11.9513 15.9939 12.5596 16.3705 13.5071C16.651 14.2156 17.0254 14.9384 17.2345 15.6728C17.626 17.0433 16.2574 17.1006 16.0846 18.2208C15.9769 18.9272 16.8601 19.8746 17.259 20.3784C18.0409 21.3651 18.9806 22.2162 20.0409 22.8637C20.6479 23.2351 21.6281 23.9042 22.3236 23.535C23.3945 22.9661 23.2932 21.215 24.7908 21.8077C25.5663 22.1138 26.3172 22.5557 27.0575 22.9425C28.202 23.5394 28.1487 24.1579 27.7124 25.4426C28.0388 24.4827 27.386 26.4024 27.7124 25.4426Z" fill="#232221"/>
</g>
<defs>
<clipPath id="clip0_1386_2209">
<rect width="16" height="16" fill="white" transform="translate(12 12)"/>
</clipPath>
</defs>
</svg>