<svg width="40" height="40" viewBox="0 0 40 40" fill="none" xmlns="http://www.w3.org/2000/svg">
<rect width="40" height="40" rx="20" fill="#F7FDFB"/>
<g clip-path="url(#clip0_1386_2218)">
<path fill-rule="evenodd" clip-rule="evenodd" d="M10.7374 19.7082C15.5692 17.837 18.7912 16.6033 20.4033 16.0073C25.0063 14.3055 25.9627 14.0099 26.5861 14.0001C26.7232 13.998 27.0298 14.0282 27.2284 14.1714C27.3961 14.2923 27.4422 14.4557 27.4643 14.5704C27.4864 14.685 27.5139 14.9463 27.492 15.1504C27.2426 17.48 26.1633 23.1334 25.6142 25.7426C25.3818 26.8467 24.9244 27.2169 24.4815 27.2531C23.5189 27.3318 22.788 26.6877 21.8558 26.1445C20.397 25.2945 19.5729 24.7653 18.1569 23.9359C16.5205 22.9773 17.5813 22.4505 18.5139 21.5895C18.758 21.3642 22.9988 17.9354 23.0809 17.6243C23.0912 17.5854 23.1007 17.4404 23.0038 17.3638C22.9069 17.2873 22.7639 17.3135 22.6606 17.3343C22.5143 17.3638 20.1839 18.733 15.6694 21.4418C15.0079 21.8455 14.4087 22.0423 13.8719 22.032C13.2801 22.0206 12.1417 21.7345 11.2955 21.49C10.2575 21.1901 9.43252 21.0315 9.50436 20.5222C9.54178 20.2569 9.95279 19.9855 10.7374 19.7082Z" fill="#232221"/>
</g>
<defs>
<clipPath id="clip0_1386_2218">
<rect width="21" height="16" fill="white" transform="translate(9.5 12)"/>
</clipPath>
</defs>
</svg>
