<svg xmlns="http://www.w3.org/2000/svg" width="34" height="20" viewBox="0 0 34 20" fill="none">
  <g filter="url(#filter0_ii_1148_2134)">
    <path d="M16.6428 19.5439H18.6295C18.6295 19.5439 19.23 19.4764 19.5355 19.1411C19.8181 18.8332 19.8077 18.2554 19.8077 18.2554C19.8077 18.2554 19.7683 15.5499 21.0068 15.1513C22.2266 14.7591 23.7935 17.7662 25.4539 18.9239C26.7091 19.7991 27.6629 19.6072 27.6629 19.6072L32.1038 19.5439C32.1038 19.5439 34.4271 19.3984 33.3258 17.5448C33.2364 17.393 32.6836 16.1741 30.0237 13.6689C27.239 11.0456 27.6131 11.4715 30.9671 6.93556C33.0099 4.17307 33.8266 2.48606 33.571 1.76486C33.3278 1.0774 31.8254 1.25875 31.8254 1.25875L26.8296 1.28828C26.8296 1.28828 26.4597 1.23767 26.1833 1.40426C25.9153 1.56874 25.7428 1.94832 25.7428 1.94832C25.7428 1.94832 24.951 4.08662 23.8954 5.90438C21.6697 9.74023 20.7782 9.94267 20.4145 9.70438C19.5688 9.14977 19.7807 7.4733 19.7807 6.28395C19.7807 2.56619 20.3356 1.01624 18.698 0.615578C18.1536 0.482726 17.7546 0.394158 16.3643 0.379396C14.5813 0.360417 13.0706 0.385722 12.2165 0.809585C11.6471 1.09216 11.2086 1.72268 11.4767 1.75853C11.8071 1.80282 12.5552 1.96308 12.9521 2.51136C13.4654 3.2178 13.4467 4.80781 13.4467 4.80781C13.4467 4.80781 13.7418 9.18351 12.7588 9.72758C12.0835 10.1008 11.1587 9.33956 9.17412 5.85798C8.15793 4.07607 7.38904 2.10437 7.38904 2.10437C7.38904 2.10437 7.24149 1.73744 6.97758 1.54133C6.65755 1.30304 6.20868 1.22712 6.20868 1.22712L1.45815 1.25665C1.45815 1.25665 0.745365 1.27773 0.483525 1.59194C0.250778 1.87241 0.464822 2.45021 0.464822 2.45021C0.464822 2.45021 4.18461 11.2796 8.39484 15.7312C12.258 19.8117 16.6428 19.5439 16.6428 19.5439Z" fill="#2C3B2E"/>
  </g>
  <defs>
    <filter id="filter0_ii_1148_2134" x="-2" y="-2" width="38" height="24" filterUnits="userSpaceOnUse" color-interpolation-filters="sRGB">
      <feFlood flood-opacity="0" result="BackgroundImageFix"/>
      <feBlend mode="normal" in="SourceGraphic" in2="BackgroundImageFix" result="shape"/>
      <feColorMatrix in="SourceAlpha" type="matrix" values="0 0 0 0 0 0 0 0 0 0 0 0 0 0 0 0 0 0 127 0" result="hardAlpha"/>
      <feOffset dx="-2" dy="-2"/>
      <feGaussianBlur stdDeviation="5"/>
      <feComposite in2="hardAlpha" operator="arithmetic" k2="-1" k3="1"/>
      <feColorMatrix type="matrix" values="0 0 0 0 0.231373 0 0 0 0 0.231373 0 0 0 0 0.231373 0 0 0 0.25 0"/>
      <feBlend mode="normal" in2="shape" result="effect1_innerShadow_1148_2134"/>
      <feColorMatrix in="SourceAlpha" type="matrix" values="0 0 0 0 0 0 0 0 0 0 0 0 0 0 0 0 0 0 127 0" result="hardAlpha"/>
      <feOffset dx="2" dy="2"/>
      <feGaussianBlur stdDeviation="5"/>
      <feComposite in2="hardAlpha" operator="arithmetic" k2="-1" k3="1"/>
      <feColorMatrix type="matrix" values="0 0 0 0 0.231373 0 0 0 0 0.231373 0 0 0 0 0.231373 0 0 0 0.25 0"/>
      <feBlend mode="normal" in2="effect1_innerShadow_1148_2134" result="effect2_innerShadow_1148_2134"/>
    </filter>
  </defs>
</svg>