<svg width="40" height="40" viewBox="0 0 40 40" fill="none" xmlns="http://www.w3.org/2000/svg">
<rect width="40" height="40" rx="20" fill="#F7FDFB"/>
<g clip-path="url(#clip0_1386_2221)">
<path fill-rule="evenodd" clip-rule="evenodd" d="M24.6568 23.2969C24.464 23.8426 23.6976 24.2941 23.0864 24.4262C22.668 24.515 22.1224 24.5853 20.284 23.8234C18.2192 22.968 15.352 19.9208 15.352 17.893C15.352 16.8607 15.9472 15.6586 16.988 15.6586C17.4888 15.6586 17.5992 15.6684 17.764 16.0637C17.9568 16.5294 18.4272 17.6769 18.4832 17.7945C18.7144 18.2771 18.248 18.5596 17.9096 18.9797C17.8016 19.1061 17.6792 19.2429 17.816 19.4781C17.952 19.7086 18.4224 20.4752 19.1136 21.0906C20.0064 21.8861 20.7304 22.14 20.9896 22.248C21.1824 22.3281 21.4128 22.3094 21.5536 22.159C21.732 21.9661 21.9536 21.6462 22.1792 21.3309C22.3384 21.1052 22.5408 21.077 22.7528 21.157C22.896 21.2066 24.716 22.0519 24.7928 22.1871C24.8496 22.2855 24.8496 22.7511 24.6568 23.2969ZM20.0016 12H19.9976C15.5872 12 12 15.5883 12 20C12 21.7493 12.564 23.3723 13.5232 24.6887L12.5264 27.6613L15.6008 26.6789C16.8656 27.516 18.3752 28 20.0016 28C24.412 28 28 24.4117 28 20C28 15.5883 24.412 12 20.0016 12Z" fill="#232221"/>
</g>
<defs>
<clipPath id="clip0_1386_2221">
<rect width="16" height="16" fill="white" transform="translate(12 12)"/>
</clipPath>
</defs>
</svg>